<svg xmlns="http://www.w3.org/2000/svg" viewBox="0 0 100 100" fill="none" stroke="currentColor" stroke-width="2.5" stroke-linecap="round" stroke-linejoin="round">
  <!-- Crown/Leaves -->
  <!-- Center leaf -->
  <path d="M50 5 Q50 25 50 35" />
  <path d="M50 5 Q45 15 47 25 Q48 30 50 35" />
  <path d="M50 5 Q55 15 53 25 Q52 30 50 35" />

  <!-- Inner left leaves -->
  <path d="M38 38 Q30 20 35 8" />
  <path d="M38 38 Q25 25 28 10" />

  <!-- Inner right leaves -->
  <path d="M62 38 Q70 20 65 8" />
  <path d="M62 38 Q75 25 72 10" />

  <!-- Outer left leaves -->
  <path d="M32 42 Q15 30 18 15" />
  <path d="M28 45 Q8 35 10 20" />

  <!-- Outer right leaves -->
  <path d="M68 42 Q85 30 82 15" />
  <path d="M72 45 Q92 35 90 20" />

  <!-- Small decorative elements at crown base -->
  <path d="M42 40 Q40 35 42 32" />
  <path d="M58 40 Q60 35 58 32" />

  <!-- Pineapple body - semi circle -->
  <path d="M22 50 A35 35 0 0 0 78 50" />
  <path d="M22 50 Q25 85 50 95 Q75 85 78 50" />

  <!-- Geometric X pattern inside body -->
  <path d="M30 55 L50 80 L70 55" />
  <path d="M35 65 L50 50 L65 65" />
  <path d="M30 55 L50 50" />
  <path d="M70 55 L50 50" />
  <path d="M35 65 L50 80" />
  <path d="M65 65 L50 80" />

  <!-- Horizontal connecting lines -->
  <path d="M30 55 Q50 60 70 55" />
  <path d="M35 65 Q50 70 65 65" />
</svg>