<svg xmlns="http://www.w3.org/2000/svg" viewBox="0 0 200 210" fill="none" stroke="#000000" stroke-width="6" stroke-linecap="round" stroke-linejoin="round">
  <!-- Crown leaves -->
  <path d="M100,112 C97,78 98,34 100,8 C102,34 103,78 100,112"/>
  <path d="M100,112 C93,84 78,42 80,18 C87,40 96,82 100,112"/>
  <path d="M100,112 C107,84 122,42 120,18 C113,40 104,82 100,112"/>
  <path d="M100,114 C86,98 60,64 48,42 C60,56 88,94 100,114"/>
  <path d="M100,114 C114,98 140,64 152,42 C140,56 112,94 100,114"/>
  <path d="M100,116 C84,108 46,82 26,66 C44,76 86,106 100,116"/>
  <path d="M100,116 C116,108 154,82 174,66 C156,76 114,106 100,116"/>

  <!-- Accent drops -->
  <path d="M36,104 C32,98 36,90 40,96 C44,102 40,108 36,104"/>
  <path d="M164,104 C168,98 164,90 160,96 C156,102 160,108 164,104"/>

  <!-- Body arcs -->
  <path d="M15,118 A85,85 0 0,1 185,118"/>
  <path d="M23,118 A77,77 0 0,1 177,118"/>

  <!-- Diamond/X lattice pattern -->
  <path d="M40,130 L100,192 L160,130"/>
  <path d="M34,145 L100,196 L166,145"/>
  <path d="M30,168 L100,128 L170,168"/>
  <path d="M38,180 L100,136 L162,180"/>
</svg>
